{
  "asset": {
    "version": "2.0",
    "generator": "Sketchup glTF Exporter by Evan Prananta."
  },
  "scene": 0,
  "scenes": [
    {
      "nodes": [
        0
      ]
    }
  ],
  "samplers": [
    {
    }
  ],
  "nodes": [
    {
      "name": "root",
      "mesh": 0
    }
  ],
  "materials": [
    {
      "pbrMetallicRoughness": {
        "baseColorFactor": [
          0.0385,
          0.0385,
          0.0385,
          1.0
        ],
        "metallicFactor": 1,
        "roughnessFactor": 0.5
      },
      "name": "kanji",
      "doubleSided": true
    },
    {
      "pbrMetallicRoughness": {
        "baseColorFactor": [
          0.6121,
          0.6121,
          0.6121,
          1.0
        ],
        "metallicFactor": 0,
        "roughnessFactor": 0.5
      },
      "name": "default material",
      "doubleSided": true
    },
    {
      "pbrMetallicRoughness": {
        "baseColorFactor": [
          0.5,
          0.01,
          0.01,
          1.0
        ],
        "metallicFactor": 0.6,
        "roughnessFactor": 0.7
      },
      "name": "sides",
      "doubleSided": true
    },
    {
      "pbrMetallicRoughness": {
        "baseColorFactor": [
          0.5,
          0.01,
          0.01,
          1.0
        ],
        "metallicFactor": 0.8,
        "roughnessFactor": 0.7
      },
      "name": "edges",
      "doubleSided": true
    },
    {
      "pbrMetallicRoughness": {
        "baseColorFactor": [
          1.0,
          1.0,
          1.0,
          1.0
        ],
        "metallicFactor": 0,
        "roughnessFactor": 0.5
      },
      "name": "kanji bg",
      "doubleSided": true
    },
    {
      "pbrMetallicRoughness": {
        "baseColorFactor": [
          0.4,
          0.4,
          0.4,
          1
        ],
        "metallicFactor": 0,
        "roughnessFactor": 0.5
      },
      "name": "corners",
      "doubleSided": true
    },
    {
      "pbrMetallicRoughness": {
        "baseColorFactor": [
          1.0,
          0.5295,
          0.0,
          1.0
        ],
        "metallicFactor": 0,
        "roughnessFactor": 0.5
      },
      "emissiveFactor": [
        1.0,
        0.5295,
        0.0,
        1.0
      ],
      "name": "yellow",
      "doubleSided": true
    },
    {
      "pbrMetallicRoughness": {
        "baseColorFactor": [
          1.0,
          1.0,
          1.0,
          1.0
        ],
        "metallicFactor": 0.5,
        "roughnessFactor": 0.5
      },
      "name": "disks",
      "doubleSided": true
    }
  ],
  "meshes": [
    {
      "primitives": [
        {
          "attributes": {
            "POSITION": 0,
            "NORMAL": 1
          },
          "indices": 2,
          "mode": 4,
          "material": 0
        },
        {
          "attributes": {
            "POSITION": 0,
            "NORMAL": 1
          },
          "indices": 3,
          "mode": 4,
          "material": 1
        },
        {
          "attributes": {
            "POSITION": 0,
            "NORMAL": 1
          },
          "indices": 4,
          "mode": 4,
          "material": 2
        },
        {
          "attributes": {
            "POSITION": 0,
            "NORMAL": 1
          },
          "indices": 5,
          "mode": 4,
          "material": 3
        },
        {
          "attributes": {
            "POSITION": 0,
            "NORMAL": 1
          },
          "indices": 6,
          "mode": 4,
          "material": 3
        },
        {
          "attributes": {
            "POSITION": 0,
            "NORMAL": 1
          },
          "indices": 7,
          "mode": 4,
          "material": 4
        },
        {
          "attributes": {
            "POSITION": 0,
            "NORMAL": 1
          },
          "indices": 8,
          "mode": 4,
          "material": 5 
        },
        {
          "attributes": {
            "POSITION": 0,
            "NORMAL": 1
          },
          "indices": 9,
          "mode": 4,
          "material": 6
        },
        {
          "attributes": {
            "POSITION": 0,
            "NORMAL": 1
          },
          "indices": 10,
          "mode": 4,
          "material": 7
        },
        {
          "attributes": {
            "POSITION": 0,
            "NORMAL": 1
          },
          "indices": 11,
          "mode": 4,
          "material": 6
        }
      ]
    }
  ],
  "accessors": [
    {
      "bufferView": 0,
      "componentType": 5126,
      "count": 27586,
      "type": "VEC3",
      "min": [
        -5.340002390649475,
        -5.25000228040077,
        -5.249999998420027
      ],
      "max": [
        5.3399977251844,
        5.250002330691952,
        5.25000001386523
      ]
    },
    {
      "bufferView": 1,
      "componentType": 5126,
      "count": 27586,
      "type": "VEC3"
    },
    {
      "bufferView": 2,
      "componentType": 5123,
      "count": 8592,
      "type": "SCALAR"
    },
    {
      "bufferView": 2,
      "componentType": 5123,
      "count": 2028,
      "type": "SCALAR",
      "byteOffset": 17184
    },
    {
      "bufferView": 2,
      "componentType": 5123,
      "count": 14184,
      "type": "SCALAR",
      "byteOffset": 21240
    },
    {
      "bufferView": 2,
      "componentType": 5123,
      "count": 4320,
      "type": "SCALAR",
      "byteOffset": 49608
    },
    {
      "bufferView": 2,
      "componentType": 5123,
      "count": 360,
      "type": "SCALAR",
      "byteOffset": 58248
    },
    {
      "bufferView": 2,
      "componentType": 5123,
      "count": 2172,
      "type": "SCALAR",
      "byteOffset": 58968
    },
    {
      "bufferView": 2,
      "componentType": 5123,
      "count": 25584,
      "type": "SCALAR",
      "byteOffset": 63312
    },
    {
      "bufferView": 2,
      "componentType": 5123,
      "count": 8283,
      "type": "SCALAR",
      "byteOffset": 114480
    },
    {
      "bufferView": 2,
      "componentType": 5123,
      "count": 10203,
      "type": "SCALAR",
      "byteOffset": 131046
    },
    {
      "bufferView": 2,
      "componentType": 5123,
      "count": 2304,
      "type": "SCALAR",
      "byteOffset": 151452
    }
  ],
  "bufferViews": [
    {
      "buffer": 0,
      "byteLength": 331032,
      "target": 34962,
      "byteStride": 12
    },
    {
      "buffer": 0,
      "byteOffset": 331032,
      "byteLength": 331032,
      "target": 34962,
      "byteStride": 12
    },
    {
      "buffer": 0,
      "byteOffset": 662064,
      "byteLength": 156060,
      "target": 34963
    }
  ],
  "buffers": [
    {
      "uri": "data:application/octet-stream;base64,",
      "byteLength": 818124
    }
  ]
}