{
  "asset": {
    "version": "2.0",
    "generator": "Sketchup glTF Exporter by Evan Prananta."
  },
  "scene": 0,
  "scenes": [
    {
      "nodes": [
        0
      ]
    }
  ],
  "samplers": [
    {
    }
  ],
  "nodes": [
    {
      "name": "root",
      "mesh": 0
    }
  ],
  "materials": [
    {
      "pbrMetallicRoughness": {
        "baseColorTexture": {
          "index": 0
        },
        "metallicFactor": 0.1,
        "roughnessFactor": 0.9
      },
      "name": "Tile Canvas",
      "doubleSided": true,
      "alphaMode": "OPAQUE"
    },
    {
      "pbrMetallicRoughness": {
        "baseColorTexture": {
          "index": 1
        },
        "metallicFactor": 0.1,
        "roughnessFactor": 0.9
      },
      "name": "Blacktop Old 01",
      "doubleSided": true,
      "alphaMode": "OPAQUE"
    },
    {
      "pbrMetallicRoughness": {
        "baseColorTexture": {
          "index": 2
        },
        "metallicFactor": 0.1,
        "roughnessFactor": 0.9
      },
      "name": "Concrete Form 4x8",
      "doubleSided": true,
      "alphaMode": "OPAQUE"
    },
    {
      "pbrMetallicRoughness": {
        "baseColorTexture": {
          "index": 3
        },
        "metallicFactor": 0.1,
        "roughnessFactor": 0.9
      },
      "name": "Grass Light Green",
      "doubleSided": true,
      "alphaMode": "OPAQUE"
    },
    {
      "pbrMetallicRoughness": {
        "baseColorTexture": {
          "index": 4
        },
        "metallicFactor": 0.1,
        "roughnessFactor": 0.9
      },
      "name": "Wood Floor Light",
      "doubleSided": true,
      "alphaMode": "OPAQUE"
    },
    {
      "pbrMetallicRoughness": {
        "baseColorTexture": {
          "index": 5
        },
        "metallicFactor": 0.1,
        "roughnessFactor": 0.9
      },
      "name": "Roofing Shingles GAF Estates",
      "doubleSided": true,
      "alphaMode": "OPAQUE"
    },
    {
      "pbrMetallicRoughness": {
        "baseColorTexture": {
          "index": 6
        },
        "metallicFactor": 0.1,
        "roughnessFactor": 0.9
      },
      "name": "Blinds Roman Hobbled Blue",
      "doubleSided": true,
      "alphaMode": "OPAQUE"
    },
    {
      "pbrMetallicRoughness": {
        "baseColorFactor": [
          0.1275,
          0.3066,
          0.8513,
          0.5
        ],
        "metallicFactor": 0.1,
        "roughnessFactor": 0.9
      },
      "name": "Translucent Glass Blue",
      "doubleSided": true,
      "alphaMode": "BLEND"
    },
    {
      "pbrMetallicRoughness": {
        "baseColorTexture": {
          "index": 7
        },
        "metallicFactor": 0.1,
        "roughnessFactor": 0.9
      },
      "name": "Translucent Glass Block Dark",
      "doubleSided": true,
      "alphaMode": "BLEND"
    },
    {
      "pbrMetallicRoughness": {
        "baseColorTexture": {
          "index": 8
        },
        "metallicFactor": 0.1,
        "roughnessFactor": 0.9
      },
      "name": "Granite Tile",
      "doubleSided": true,
      "alphaMode": "OPAQUE"
    },
    {
      "pbrMetallicRoughness": {
        "baseColorTexture": {
          "index": 9
        },
        "metallicFactor": 0.1,
        "roughnessFactor": 0.9
      },
      "name": "Brick Tumbled",
      "doubleSided": true,
      "alphaMode": "OPAQUE"
    },
    {
      "pbrMetallicRoughness": {
        "baseColorTexture": {
          "index": 10
        },
        "metallicFactor": 0.1,
        "roughnessFactor": 0.9
      },
      "name": "Modern Siding",
      "doubleSided": true,
      "alphaMode": "OPAQUE"
    },
    {
      "pbrMetallicRoughness": {
        "baseColorTexture": {
          "index": 11
        },
        "metallicFactor": 0.1,
        "roughnessFactor": 0.9
      },
      "name": "Wood Cherry Original",
      "doubleSided": true,
      "alphaMode": "OPAQUE"
    }
  ],
  "images": [
    {
      "bufferView": 0,
      "mimeType": "image/png"
    },
    {
      "bufferView": 1,
      "mimeType": "image/png"
    },
    {
      "bufferView": 2,
      "mimeType": "image/png"
    },
    {
      "bufferView": 3,
      "mimeType": "image/png"
    },
    {
      "bufferView": 4,
      "mimeType": "image/png"
    },
    {
      "bufferView": 5,
      "mimeType": "image/png"
    },
    {
      "bufferView": 6,
      "mimeType": "image/png"
    },
    {
      "bufferView": 7,
      "mimeType": "image/png"
    },
    {
      "bufferView": 8,
      "mimeType": "image/png"
    },
    {
      "bufferView": 9,
      "mimeType": "image/png"
    },
    {
      "bufferView": 10,
      "mimeType": "image/png"
    },
    {
      "bufferView": 11,
      "mimeType": "image/png"
    }
  ],
  "textures": [
    {
      "source": 0,
      "sampler": 0
    },
    {
      "source": 1,
      "sampler": 0
    },
    {
      "source": 2,
      "sampler": 0
    },
    {
      "source": 3,
      "sampler": 0
    },
    {
      "source": 4,
      "sampler": 0
    },
    {
      "source": 5,
      "sampler": 0
    },
    {
      "source": 6,
      "sampler": 0
    },
    {
      "source": 7,
      "sampler": 0
    },
    {
      "source": 8,
      "sampler": 0
    },
    {
      "source": 9,
      "sampler": 0
    },
    {
      "source": 10,
      "sampler": 0
    },
    {
      "source": 11,
      "sampler": 0
    }
  ],
  "meshes": [
    {
      "primitives": [
        {
          "attributes": {
            "POSITION": 2,
            "NORMAL": 3,
            "TEXCOORD_0": 4
          },
          "indices": 5,
          "mode": 4,
          "material": 0
        },
        {
          "attributes": {
            "POSITION": 2,
            "NORMAL": 3,
            "TEXCOORD_0": 4
          },
          "indices": 6,
          "mode": 4,
          "material": 1
        },
        {
          "attributes": {
            "POSITION": 2,
            "NORMAL": 3,
            "TEXCOORD_0": 4
          },
          "indices": 7,
          "mode": 4,
          "material": 2
        },
        {
          "attributes": {
            "POSITION": 2,
            "NORMAL": 3,
            "TEXCOORD_0": 4
          },
          "indices": 8,
          "mode": 4,
          "material": 3
        },
        {
          "attributes": {
            "POSITION": 2,
            "NORMAL": 3,
            "TEXCOORD_0": 4
          },
          "indices": 9,
          "mode": 4,
          "material": 4
        },
        {
          "attributes": {
            "POSITION": 2,
            "NORMAL": 3,
            "TEXCOORD_0": 4
          },
          "indices": 10,
          "mode": 4,
          "material": 5
        },
        {
          "attributes": {
            "POSITION": 2,
            "NORMAL": 3,
            "TEXCOORD_0": 4
          },
          "indices": 11,
          "mode": 4,
          "material": 6
        },
        {
          "attributes": {
            "POSITION": 0,
            "NORMAL": 1
          },
          "indices": 12,
          "mode": 4,
          "material": 7
        },
        {
          "attributes": {
            "POSITION": 2,
            "NORMAL": 3,
            "TEXCOORD_0": 4
          },
          "indices": 13,
          "mode": 4,
          "material": 8
        },
        {
          "attributes": {
            "POSITION": 2,
            "NORMAL": 3,
            "TEXCOORD_0": 4
          },
          "indices": 14,
          "mode": 4,
          "material": 9
        },
        {
          "attributes": {
            "POSITION": 2,
            "NORMAL": 3,
            "TEXCOORD_0": 4
          },
          "indices": 15,
          "mode": 4,
          "material": 10
        },
        {
          "attributes": {
            "POSITION": 2,
            "NORMAL": 3,
            "TEXCOORD_0": 4
          },
          "indices": 16,
          "mode": 4,
          "material": 11
        },
        {
          "attributes": {
            "POSITION": 2,
            "NORMAL": 3,
            "TEXCOORD_0": 4
          },
          "indices": 17,
          "mode": 4,
          "material": 12
        }
      ]
    }
  ],
  "accessors": [
    {
      "bufferView": 12,
      "componentType": 5126,
      "count": 31,
      "type": "VEC3",
      "min": [
        0.04999999999999745,
        -2.8500000000000068,
        -2.0999999999999868
      ],
      "max": [
        3.3999999999999955,
        1.2999999999999992,
        3.450000000000003
      ]
    },
    {
      "bufferView": 13,
      "componentType": 5126,
      "count": 31,
      "type": "VEC3"
    },
    {
      "bufferView": 14,
      "componentType": 5126,
      "count": 4945,
      "type": "VEC3",
      "min": [
        -5.000000000000003,
        -3.2000000000000024,
        -5.000000000000002
      ],
      "max": [
        5.000000000000001,
        1.9226986280836051,
        5.000000000000002
      ]
    },
    {
      "bufferView": 15,
      "componentType": 5126,
      "count": 4945,
      "type": "VEC3"
    },
    {
      "bufferView": 16,
      "componentType": 5126,
      "count": 4945,
      "type": "VEC2"
    },
    {
      "bufferView": 18,
      "componentType": 5123,
      "count": 4644,
      "type": "SCALAR"
    },
    {
      "bufferView": 18,
      "componentType": 5123,
      "count": 708,
      "type": "SCALAR",
      "byteOffset": 9288
    },
    {
      "bufferView": 18,
      "componentType": 5123,
      "count": 1845,
      "type": "SCALAR",
      "byteOffset": 10704
    },
    {
      "bufferView": 18,
      "componentType": 5123,
      "count": 39,
      "type": "SCALAR",
      "byteOffset": 14394
    },
    {
      "bufferView": 18,
      "componentType": 5123,
      "count": 192,
      "type": "SCALAR",
      "byteOffset": 14472
    },
    {
      "bufferView": 18,
      "componentType": 5123,
      "count": 150,
      "type": "SCALAR",
      "byteOffset": 14856
    },
    {
      "bufferView": 18,
      "componentType": 5123,
      "count": 9,
      "type": "SCALAR",
      "byteOffset": 15156
    },
    {
      "bufferView": 17,
      "componentType": 5123,
      "count": 51,
      "type": "SCALAR"
    },
    {
      "bufferView": 18,
      "componentType": 5123,
      "count": 15,
      "type": "SCALAR",
      "byteOffset": 15174
    },
    {
      "bufferView": 18,
      "componentType": 5123,
      "count": 45,
      "type": "SCALAR",
      "byteOffset": 15204
    },
    {
      "bufferView": 18,
      "componentType": 5123,
      "count": 852,
      "type": "SCALAR",
      "byteOffset": 15294
    },
    {
      "bufferView": 18,
      "componentType": 5123,
      "count": 183,
      "type": "SCALAR",
      "byteOffset": 16998
    },
    {
      "bufferView": 18,
      "componentType": 5123,
      "count": 12,
      "type": "SCALAR",
      "byteOffset": 17364
    }
  ],
  "bufferViews": [
    {
      "buffer": 0,
      "byteLength": 254506
    },
    {
      "buffer": 0,
      "byteOffset": 254506,
      "byteLength": 249442
    },
    {
      "buffer": 0,
      "byteOffset": 503948,
      "byteLength": 79180
    },
    {
      "buffer": 0,
      "byteOffset": 583128,
      "byteLength": 557661
    },
    {
      "buffer": 0,
      "byteOffset": 1140789,
      "byteLength": 99146
    },
    {
      "buffer": 0,
      "byteOffset": 1239935,
      "byteLength": 20755
    },
    {
      "buffer": 0,
      "byteOffset": 1260690,
      "byteLength": 26029
    },
    {
      "buffer": 0,
      "byteOffset": 1286719,
      "byteLength": 68163
    },
    {
      "buffer": 0,
      "byteOffset": 1354882,
      "byteLength": 534585
    },
    {
      "buffer": 0,
      "byteOffset": 1889467,
      "byteLength": 51674
    },
    {
      "buffer": 0,
      "byteOffset": 1941141,
      "byteLength": 19746
    },
    {
      "buffer": 0,
      "byteOffset": 1960887,
      "byteLength": 63060
    },
    {
      "buffer": 0,
      "byteOffset": 2023956,
      "byteLength": 372,
      "target": 34962,
      "byteStride": 12
    },
    {
      "buffer": 0,
      "byteOffset": 2024328,
      "byteLength": 372,
      "target": 34962,
      "byteStride": 12
    },
    {
      "buffer": 0,
      "byteOffset": 2024700,
      "byteLength": 59340,
      "target": 34962,
      "byteStride": 12
    },
    {
      "buffer": 0,
      "byteOffset": 2084040,
      "byteLength": 59340,
      "target": 34962,
      "byteStride": 12
    },
    {
      "buffer": 0,
      "byteOffset": 2143384,
      "byteLength": 39560,
      "target": 34962,
      "byteStride": 8
    },
    {
      "buffer": 0,
      "byteOffset": 2182944,
      "byteLength": 102,
      "target": 34963
    },
    {
      "buffer": 0,
      "byteOffset": 2183046,
      "byteLength": 17388,
      "target": 34963
    }
  ],
  "buffers": [
    {
      "uri": "data:application/octet-stream;base64,",
      "byteLength": 2200434
    }
  ]
}