<?xml version="1.0" encoding="utf-8"?>
<!-- Generator: Adobe Illustrator 27.5.0, SVG Export Plug-In . SVG Version: 6.00 Build 0)  -->
<svg version="1.1" id="Layer_1" xmlns="http://www.w3.org/2000/svg" xmlns:xlink="http://www.w3.org/1999/xlink" x="0px" y="0px"
	 viewBox="0 0 122.5 122.5" style="enable-background:new 0 0 122.5 122.5;" xml:space="preserve">
<style type="text/css">
	.st0{fill:#FFFFFF;}
	.st1{fill:#201600;}
</style>
<rect x="0" class="st0" width="122.5" height="122.5"/>
<polygon class="st1" points="57.5,20.6 51.9,0 0,0 0,20.6 "/>
<polygon class="st1" points="92.1,0 98.1,22 122.5,22 122.5,0 "/>
<polygon class="st1" points="91.1,29.7 91.1,29.7 82.9,0 61.1,0 69.1,29.7 0,29.7 0,50.3 38.3,50.3 38.3,101.9 29.2,101.9 29.2,64 
	9.9,64 9.9,101.9 0,101.9 0,122.5 85.2,122.5 79.6,101.9 59.1,101.9 59.1,84.5 74.9,84.5 69.4,64 59.1,64 59.1,50.3 74.8,50.3 
	74.8,50.3 94.4,122.5 122.5,122.5 122.5,101.9 111.2,101.9 96.9,50.3 122.5,50.3 122.5,29.7 "/>
</svg>
