<svg id="Layer_1" data-name="Layer 1" xmlns="http://www.w3.org/2000/svg" viewBox="0 0 112.08 112.08"><defs><style>.cls-2{fill:#201600;}</style></defs><title>logo</title><polygon class="cls-2" points="52.94 22.2 48.3 5.09 5.09 5.09 5.09 22.2 52.94 22.2"/><polygon class="cls-2" points="81.7 5.09 86.67 23.37 106.99 23.37 106.99 5.09 81.7 5.09"/><polygon class="cls-2" points="80.91 29.82 80.91 29.82 74.08 5.09 55.91 5.09 62.63 29.82 5.09 29.82 5.09 46.93 37.03 46.93 37.03 89.88 29.41 89.88 29.41 58.3 13.29 58.3 13.29 89.88 5.09 89.88 5.09 106.99 75.98 106.99 71.33 89.88 54.31 89.88 54.31 75.41 67.4 75.41 62.75 58.3 54.31 58.3 54.31 46.93 67.26 46.93 67.26 46.93 83.57 106.99 106.99 106.99 106.99 89.88 97.55 89.88 85.66 46.93 106.99 46.93 106.99 29.82 80.91 29.82"/></svg>
