<?xml version="1.0" encoding="utf-8"?>
<!-- Generator: Adobe Illustrator 27.5.0, SVG Export Plug-In . SVG Version: 6.00 Build 0)  -->
<svg version="1.1" id="Layer_1" xmlns="http://www.w3.org/2000/svg" xmlns:xlink="http://www.w3.org/1999/xlink" x="0px" y="0px"
	 viewBox="0 0 122.5 122.5" style="enable-background:new 0 0 122.5 122.5;" xml:space="preserve">
<style type="text/css">
	.st0{fill:#FFFFFF;}
	.st1{fill:#201600;}
</style>
<path class="st0" d="M10,0h102.5c5.5,0,10,4.5,10,10v102.5c0,5.5-4.5,10-10,10H10c-5.5,0-10-4.5-10-10V10C0,4.5,4.5,0,10,0z"/>
<polygon class="st1" points="58.1,27.4 53.5,10.3 10.3,10.3 10.3,27.4 "/>
<polygon class="st1" points="86.9,10.3 91.9,28.6 112.2,28.6 112.2,10.3 "/>
<polygon class="st1" points="86.1,35 86.1,35 79.3,10.3 61.1,10.3 67.8,35 10.3,35 10.3,52.1 42.2,52.1 42.2,95.1 34.6,95.1 
	34.6,63.5 18.5,63.5 18.5,95.1 10.3,95.1 10.3,112.2 81.2,112.2 76.5,95.1 59.5,95.1 59.5,80.6 72.6,80.6 68,63.5 59.5,63.5 
	59.5,52.1 72.5,52.1 72.5,52.1 88.8,112.2 112.2,112.2 112.2,95.1 102.8,95.1 90.9,52.1 112.2,52.1 112.2,35 "/>
</svg>
